<svg width="259" height="64" viewBox="0 0 259 64" fill="none" xmlns="http://www.w3.org/2000/svg">
<path d="M99.7858 53.3881C94.7262 53.3881 90.2887 52.4822 86.4733 50.6664C82.658 48.8526 79.6905 46.2996 77.5689 43.0073C75.4473 39.717 74.3875 35.8816 74.3875 31.505C74.3875 27.1284 75.4473 23.2557 77.5689 20.0026C79.6905 16.7476 82.6972 14.224 86.5891 12.4279C90.481 10.6317 95.0932 9.73367 100.426 9.73367C101.709 9.73367 102.781 9.78073 103.636 9.87485C104.492 9.96897 105.291 10.0709 106.031 10.1827C106.771 10.2945 107.617 10.3984 108.571 10.4906C109.524 10.5847 110.722 10.6317 112.162 10.6317L113.913 21.8537H113.33C112.902 19.6477 112.054 17.6928 110.79 15.9907C109.524 14.2887 107.948 12.9416 106.06 11.9514C104.172 10.9612 102.08 10.4651 99.7838 10.4651C97.4876 10.4651 95.4425 10.9886 93.5368 12.0357C91.6291 13.0828 89.9943 14.5417 88.6322 16.4123C87.2701 18.3202 86.2084 20.5929 85.4508 23.2302C84.6912 25.8675 84.3125 28.7578 84.3125 31.8991C84.3125 36.0522 84.9739 39.67 86.2967 42.7564C87.6195 45.8427 89.4879 48.2369 91.9019 49.9389C94.314 51.641 97.1559 52.492 100.426 52.492C104.162 52.492 107.246 51.4174 109.679 49.2644C112.111 47.1134 113.62 44.1113 114.205 40.2582H114.788L113.094 52.3782C111.265 52.3782 109.65 52.4626 108.249 52.6312C106.847 52.7998 105.495 52.9685 104.192 53.1371C102.887 53.3057 101.419 53.39 99.7838 53.39L99.7858 53.3881Z" fill="white"/>
<path d="M115.55 52.6018V52.041H115.609C117.01 52.041 118.138 51.6292 118.994 50.8076C119.85 49.984 120.278 48.8997 120.278 47.5526V15.5692C120.278 14.2221 119.85 13.1377 118.994 12.3141C118.138 11.4925 117.01 11.0788 115.609 11.0788H115.55V10.518H134.057V11.0788H133.998C132.597 11.0788 131.469 11.4906 130.613 12.3141C129.757 13.1377 129.329 14.2221 129.329 15.5692V47.5526C129.329 48.8997 129.757 49.984 130.613 50.8076C131.469 51.6312 132.597 52.041 133.998 52.041H134.057V52.6018H115.55Z" fill="white"/>
<path d="M135.949 52.6018V52.041C137.388 52.041 138.538 51.6684 139.394 50.9194C140.249 50.1723 140.677 49.1624 140.677 47.8899V15.2888C140.677 14.0181 140.239 12.9985 139.364 12.2298C138.489 11.4631 137.368 11.0788 136.006 11.0788V10.518H154.806C160.294 10.518 165.082 11.3122 169.169 12.9024C173.255 14.4927 176.428 16.8574 178.685 20.0007C180.942 23.1439 182.071 27.0146 182.071 31.6168C182.071 36.2189 180.933 40.0719 178.656 43.176C176.379 46.282 173.198 48.6291 169.11 50.2174C165.023 51.8076 160.254 52.6018 154.806 52.6018H135.947H135.949ZM153.756 51.8723H154.806C158.309 51.8723 161.353 51.1057 163.944 49.5723C166.533 48.0389 168.546 45.7565 169.987 42.7269C171.426 39.6974 172.148 35.9561 172.148 31.505C172.148 27.0539 171.428 23.3322 169.987 20.3379C168.546 17.3457 166.533 15.0907 163.944 13.5769C161.355 12.0612 158.309 11.3043 154.806 11.3043H149.668V47.8899C149.668 49.0879 149.968 50.0507 150.573 50.7802C151.175 51.5096 152.237 51.8743 153.754 51.8743L153.756 51.8723Z" fill="white"/>
<path d="M208.906 53.3881C203.846 53.3881 199.409 52.4822 195.593 50.6664C191.778 48.8526 188.811 46.2996 186.689 43.0073C184.567 39.717 183.508 35.8816 183.508 31.505C183.508 27.1284 184.567 23.2557 186.689 20.0026C188.811 16.7476 191.817 14.224 195.709 12.4279C199.601 10.6317 204.213 9.73367 209.546 9.73367C210.829 9.73367 211.901 9.78073 212.757 9.87485C213.612 9.96897 214.411 10.0709 215.151 10.1827C215.891 10.2945 216.737 10.3984 217.691 10.4906C218.644 10.5847 219.842 10.6317 221.282 10.6317L223.033 21.8537H222.45C222.022 19.6477 221.174 17.6928 219.91 15.9907C218.644 14.2887 217.068 12.9416 215.18 11.9514C213.292 10.9612 211.2 10.4651 208.904 10.4651C206.608 10.4651 204.563 10.9886 202.657 12.0357C200.749 13.0828 199.114 14.5417 197.752 16.4123C196.39 18.3202 195.328 20.5929 194.571 23.2302C193.811 25.8675 193.433 28.7578 193.433 31.8991C193.433 36.0522 194.094 39.67 195.417 42.7564C196.74 45.8427 198.608 48.2369 201.022 49.9389C203.434 51.641 206.276 52.492 209.546 52.492C213.283 52.492 216.366 51.4174 218.8 49.2644C221.231 47.1134 222.74 44.1113 223.325 40.2582H223.908L222.214 52.3782C220.385 52.3782 218.77 52.4626 217.369 52.6312C215.967 52.7998 214.615 52.9685 213.312 53.1371C212.007 53.3057 210.539 53.39 208.904 53.39L208.906 53.3881Z" fill="white"/>
<path d="M224.846 52.6018L224.905 52.041H224.964C226.365 52.041 227.494 51.6861 228.35 50.9743C229.205 50.2644 229.633 49.235 229.633 47.8879V15.5692C229.633 14.2221 229.205 13.1377 228.35 12.3141C227.494 11.4925 226.365 11.0788 224.964 11.0788L224.905 10.518H256.199L257.95 21.7968H257.367C256.199 14.7632 251.587 11.2474 243.531 11.2474H238.626V27.4637H243.88C245.825 27.4637 247.383 26.8931 248.551 25.7519C249.719 24.6106 250.302 23.1067 250.302 21.2341H250.884V35.0384H250.302C250.262 33.0188 249.601 31.3736 248.317 30.101C247.034 28.8304 245.34 28.1931 243.238 28.1931H238.626V47.8879C238.626 50.5448 239.988 51.8723 242.712 51.8723H245.163C248.938 51.8723 251.936 50.937 254.154 49.0664C256.372 47.1957 257.793 44.2603 258.417 40.2563H259L257.249 52.6018H224.846Z" fill="white"/>
<path d="M63.1475 30.1951H48.6398C39.9885 30.1951 32.9545 23.1675 32.9545 14.524V11.771C34.3087 11.8631 35.6276 12.0906 36.8954 12.4455C40.8874 13.5534 44.3789 15.879 46.9362 18.9928H60.5686C55.8878 8.21008 45.3445 0.554921 32.9545 0.0313736C32.5011 0.0117651 32.0477 0 31.5904 0C31.1332 0 30.6974 0.00980425 30.2539 0.0313736H30.2264C21.8185 0.388248 14.2624 4.02759 8.80631 9.69837C3.35217 15.3711 0 23.0733 0 31.5579V31.5619C0 40.0484 3.35217 47.7506 8.80631 53.4214C14.2624 59.0942 21.8185 62.7315 30.2264 63.0884H30.2539C30.6974 63.108 31.143 63.1198 31.5904 63.1198C32.0379 63.1198 32.5011 63.11 32.9545 63.0884C45.3445 62.5629 55.8878 54.9097 60.5686 44.1231H46.9362C44.3789 47.2369 40.8874 49.5625 36.8954 50.6703C35.6276 51.0253 34.3067 51.2527 32.9545 51.3449V48.5918C32.9545 39.9504 39.9885 32.9207 48.6398 32.9207H63.1475C63.1671 32.4678 63.1789 32.0148 63.1789 31.5579V31.554C63.1789 31.0971 63.1691 30.6442 63.1475 30.1912V30.1951ZM32.9545 2.75892C42.6832 3.21187 51.1657 8.49833 56.0487 16.2692H48.1864C46.8361 14.8044 45.2876 13.5161 43.5939 12.4475C40.4772 10.4886 36.8503 9.27286 32.9564 9.04148V2.75892H32.9545ZM31.5904 41.6544C29.7181 37.0895 26.0598 33.4325 21.4908 31.5619C26.0617 29.6932 29.7201 26.0421 31.5904 21.4752C33.4628 26.0421 37.1192 29.6951 41.6921 31.5619C37.1211 33.4325 33.4628 37.0895 31.5904 41.6544ZM30.2264 14.526C30.2264 23.1694 23.1924 30.1971 14.5411 30.1971H11.7856C11.868 29.0088 12.0545 27.85 12.3371 26.7284C14.072 19.8203 19.4437 14.3417 26.2953 12.4475C27.5612 12.0965 28.8722 11.869 30.2225 11.7769V14.526H30.2264ZM30.2264 2.75892V9.04344C26.3326 9.27482 22.7076 10.4906 19.5949 12.4475C16.645 14.2966 14.1604 16.8084 12.339 19.7713C10.451 22.838 9.28126 26.3911 9.05163 30.1951H2.76142C3.45422 15.3809 15.3948 3.45502 30.2264 2.75892ZM30.2264 60.3609C15.3948 59.6667 3.45422 47.7389 2.76142 32.9246H9.05163C9.2793 36.7307 10.449 40.2837 12.339 43.3485C14.1604 46.3114 16.645 48.8232 19.5949 50.6723C22.7076 52.6273 26.3326 53.843 30.2264 54.0763V60.3609ZM30.2264 51.3449C28.8761 51.2527 27.5631 51.0253 26.2992 50.6743C19.4496 48.7801 14.076 43.3015 12.341 36.3973C12.0584 35.2737 11.87 34.1149 11.7895 32.9266H14.545C23.1963 32.9266 30.2303 39.9543 30.2303 48.5977V51.3468L30.2264 51.3449ZM43.5899 50.6723C45.2876 49.6056 46.8322 48.3193 48.1864 46.8506H56.0487C51.1657 54.6215 42.6832 59.9079 32.9545 60.3609V54.0783C36.8444 53.8469 40.4733 52.6312 43.5899 50.6723Z" fill="#EBC17B"/>
</svg>
